<?xml version="1.0" ?><!DOCTYPE svg  PUBLIC '-//W3C//DTD SVG 1.1//EN'  'http://www.w3.org/Graphics/SVG/1.1/DTD/svg11.dtd'><svg enable-background="new 0 0 32 32" version="1.1" viewBox="0 0 32 32" xml:space="preserve" xmlns="http://www.w3.org/2000/svg" xmlns:xlink="http://www.w3.org/1999/xlink"><g id="Layer_2"/><g id="Layer_3"/><g id="Layer_4"/><g id="Layer_5"/><g id="Layer_6"/><g id="Layer_7"/><g id="Layer_8"/><g id="Layer_9"/><g id="Layer_10"/><g id="Layer_11"/><g id="Layer_12"/><g id="Layer_13"/><g id="Layer_14"/><g id="Layer_15"/><g id="Layer_16"/><g id="Layer_17"/><g id="Layer_18"/><g id="Layer_19"><g><path d="M17,31c-0.5522,0-1-0.4478-1-1v-4c0-0.5522,0.4478-1,1-1c0.5527,0,1,0.4478,1,1v4    C18,30.5522,17.5527,31,17,31z" fill="#4391B2"/></g><g><path d="M13,31c-0.5522,0-1-0.4478-1-1v-4c0-0.5522,0.4478-1,1-1s1,0.4478,1,1v4C14,30.5522,13.5522,31,13,31z" fill="#4391B2"/></g><g><path d="M27,4v24c0,1.65-1.35,3-3,3h-3c-0.55,0-1-0.45-1-1v-3H10v3c0,0.55-0.45,1-1,1H8c-1.65,0-3-1.35-3-3V4    c0-1.65,1.35-3,3-3h16C25.65,1,27,2.35,27,4z" fill="#48B1DD"/></g><circle cx="9" cy="5" fill="#96CEE5" r="1"/><circle cx="23" cy="5" fill="#96CEE5" r="1"/><g><circle cx="9" cy="23" fill="#96CEE5" r="1"/></g><g><circle cx="23" cy="23" fill="#96CEE5" r="1"/></g></g><g id="Layer_20"/><g id="Layer_21"/><g id="Layer_22"/><g id="Layer_23"/><g id="Layer_24"/><g id="Layer_25"/><g id="Layer_26"/><g id="Layer_27"/><g id="Layer_28"/><g id="Layer_29"/><g id="Layer_30"/><g id="Layer_31"/></svg>